<?xml version="1.0" standalone="no"?>
<!DOCTYPE svg PUBLIC "-//W3C//DTD SVG 20010904//EN"
 "http://www.w3.org/TR/2001/REC-SVG-20010904/DTD/svg10.dtd">
<svg version="1.0" xmlns="http://www.w3.org/2000/svg"
 width="300.000000pt" height="300.000000pt" viewBox="0 0 300.000000 300.000000"
 preserveAspectRatio="xMidYMid meet">
<metadata>
Created by potrace 1.10, written by Peter Selinger 2001-2011
</metadata>
<g transform="translate(0.000000,300.000000) scale(0.100000,-0.100000)"
fill="#8eb479" stroke="none">
<path d="M0 1500 l0 -1500 1500 0 1500 0 0 1500 0 1500 -1500 0 -1500 0 0
-1500z m1711 1464 c276 -46 522 -177 722 -383 244 -252 367 -551 367 -891 0
-182 -50 -440 -85 -440 -18 0 -125 100 -147 137 l-17 29 57 -4 c42 -3 62 1 77
13 20 15 20 16 1 28 -82 53 -111 75 -124 95 -15 23 -15 23 14 16 31 -8 63 -8
71 0 3 3 -8 22 -25 43 -36 46 -80 135 -112 223 -30 85 -37 91 -54 49 -7 -19
-28 -69 -46 -111 -17 -42 -45 -96 -62 -119 l-30 -41 -25 23 c-27 26 -83 116
-83 135 0 8 14 4 38 -8 37 -19 104 -20 123 -1 4 4 -17 40 -48 78 -51 64 -123
194 -166 303 -20 49 -33 53 -49 15 -6 -16 -33 -75 -61 -132 -41 -86 -64 -118
-126 -181 -42 -43 -85 -82 -96 -88 -52 -27 70 -43 144 -18 27 9 52 16 56 16
12 0 -37 -81 -80 -135 -49 -60 -50 -79 -4 -73 16 3 29 2 29 -2 0 -10 -38 -42
-111 -93 -66 -46 -129 -117 -129 -145 0 -14 47 -13 165 5 l39 5 -28 -38 c-48
-65 -108 -124 -176 -172 l-65 -47 63 -3 c41 -2 89 4 139 18 42 11 78 18 81 15
10 -9 -70 -115 -124 -165 -105 -95 -243 -135 -391 -112 -105 17 -172 50 -248
123 -56 54 -125 143 -125 162 0 3 26 -3 58 -14 60 -22 222 -38 222 -23 0 5
-23 24 -50 43 -52 35 -170 154 -190 192 -12 21 -11 21 31 16 140 -19 159 -20
159 -4 0 23 -66 97 -124 140 -95 70 -116 88 -116 98 0 6 4 8 8 5 5 -3 21 -2
36 2 l28 8 -41 49 c-46 55 -95 134 -88 141 2 2 23 -3 47 -11 61 -22 160 -19
160 4 0 4 -26 28 -58 53 -72 56 -159 181 -206 298 -20 47 -41 86 -48 88 -8 1
-23 -23 -37 -60 -50 -132 -113 -240 -180 -311 -35 -37 -35 -39 -17 -53 28 -20
70 -18 116 6 22 11 40 18 40 15 0 -27 -91 -165 -109 -165 -14 0 -72 103 -112
199 -38 91 -59 122 -59 89 -1 -32 -82 -213 -120 -269 -46 -68 -43 -82 16 -69
19 4 34 5 34 1 0 -19 -38 -55 -86 -82 -30 -17 -54 -35 -54 -40 0 -17 44 -31
91 -27 27 1 49 1 49 -2 0 -23 -93 -126 -132 -146 -25 -13 -28 -12 -38 5 -5 11
-22 69 -37 128 -25 98 -27 125 -27 288 0 150 4 196 23 275 70 302 235 558 484
751 177 137 385 226 602 258 99 14 275 12 376 -5z m-1051 -1412 c0 -5 34 -45
75 -89 41 -45 75 -84 75 -87 0 -16 -58 -3 -93 21 -33 23 -127 139 -127 157 0
3 16 6 35 6 19 0 35 -4 35 -8z m1760 -1 c0 -13 -48 -82 -83 -119 -39 -41 -77
-62 -113 -62 -26 0 -26 1 22 53 27 28 65 71 84 95 25 32 40 42 62 42 15 0 28
-4 28 -9z m-1680 -276 c19 -17 52 -44 72 -60 45 -32 42 -46 -7 -35 -67 15
-175 96 -175 131 0 21 76 -4 110 -36z m1608 -12 c-46 -48 -94 -77 -144 -86
-49 -9 -48 3 4 41 26 19 61 48 77 63 27 25 77 41 98 31 5 -3 -11 -24 -35 -49z
m-1898 -101 c0 -11 -60 -82 -69 -82 -11 0 -33 51 -26 59 6 5 70 27 88 30 4 1
7 -2 7 -7z m2152 -1 c13 -5 35 -12 51 -16 29 -6 28 -13 -6 -59 -14 -19 -16
-18 -46 24 -42 58 -42 68 1 51z m-1764 -140 c44 -5 85 -11 91 -15 13 -9 16
-512 2 -520 -4 -3 -31 -3 -60 1 l-51 6 0 194 0 194 -60 71 c-33 40 -60 76 -60
81 0 5 13 6 29 2 16 -3 65 -10 109 -14z m1471 -2 c-6 -12 -35 -48 -65 -80
l-54 -59 0 -200 0 -200 -32 0 c-18 0 -43 3 -55 6 l-23 6 0 259 0 258 33 5 c48
7 169 23 190 24 15 2 16 -1 6 -19z m-1755 -159 l46 -19 0 -176 c0 -195 1 -193
-65 -181 l-35 7 0 194 c0 107 2 195 4 195 2 0 25 -9 50 -20z m1965 -176 c-2
-119 -7 -188 -14 -194 -6 -5 -30 -6 -53 -3 l-42 6 2 175 3 174 45 18 c25 9 49
15 53 13 4 -3 7 -88 6 -189z m-745 -39 c65 -17 86 -30 86 -51 0 -27 -43 -52
-150 -88 -109 -38 -147 -63 -137 -90 9 -24 57 -43 198 -82 216 -58 317 -102
387 -168 42 -39 62 -76 62 -116 l0 -30 -214 0 -215 0 -36 54 c-41 63 -102 111
-236 190 -154 89 -185 129 -136 173 34 32 74 49 182 78 55 15 112 34 128 41
31 16 36 40 10 48 -10 2 -28 7 -40 11 -20 5 -23 3 -23 -19 0 -32 -11 -37 -140
-70 -195 -50 -240 -77 -240 -140 0 -51 43 -95 173 -173 107 -64 217 -156 217
-181 0 -9 -49 -12 -190 -12 l-190 0 -24 39 c-29 45 -60 70 -169 136 -111 67
-147 103 -147 149 0 87 117 138 472 206 83 16 157 35 164 41 33 27 -7 34 -206
37 -194 3 -200 4 -200 24 0 21 2 21 278 15 210 -4 291 -9 336 -22z"/>
</g>
</svg>
