 <svg  version="1.0" xmlns="http://www.w3.org/2000/svg"  width="300.000000pt" height="300.000000pt" viewBox="0 0 300.000000 300.000000"  preserveAspectRatio="xMidYMid meet">  <g transform="translate(0.000000,300.000000) scale(0.100000,-0.100000)" fill="#578326" stroke="none"> <path d="M1335 2969 c-217 -32 -425 -121 -602 -258 -249 -193 -414 -449 -484 -751 -19 -79 -23 -125 -23 -275 0 -163 2 -190 27 -288 15 -59 32 -117 37 -128 10 -17 13 -18 38 -5 39 20 132 123 132 146 0 3 -22 3 -49 2 -47 -4 -91 10 -91 27 0 5 24 23 54 40 48 27 86 63 86 82 0 4 -15 3 -34 -1 -59 -13 -62 1 -16 69 38 56 119 237 120 269 0 33 21 2 59 -89 40 -96 98 -199 112 -199 18 0 109 138 109 165 0 3 -18 -4 -40 -15 -46 -24 -88 -26 -116 -6 -18 14 -18 16 17 53 67 71 130 179 180 311 14 37 29 61 37 60 7 -2 28 -41 48 -88 47 -117 134 -242 206 -298 32 -25 58 -49 58 -53 0 -23 -99 -26 -160 -4 -24 8 -45 13 -47 11 -7 -7 42 -86 88 -141 l41 -49 -28 -8 c-15 -4 -31 -5 -36 -2 -4 3 -8 1 -8 -5 0 -10 21 -28 116 -98 58 -43 124 -117 124 -140 0 -16 -19 -15 -159 4 -42 5 -43 5 -31 -16 20 -38 138 -157 190 -192 27 -19 50 -38 50 -43 0 -15 -162 1 -222 23 -32 11 -58 17 -58 14 0 -19 69 -108 125 -162 76 -73 143 -106 248 -123 148 -23 286 17 391 112 54 50 134 156 124 165 -3 3 -39 -4 -81 -15 -50 -14 -98 -20 -139 -18 l-63 3 65 47 c68 48 128 107 176 172 l28 38 -39 -5 c-118 -18 -165 -19 -165 -5 0 28 63 99 129 145 73 51 111 83 111 93 0 4 -13 5 -29 2 -46 -6 -45 13 4 73 43 54 92 135 80 135 -4 0 -29 -7 -56 -16 -74 -25 -196 -9 -144 18 11 6 54 45 96 88 62 63 85 95 126 181 28 57 55 116 61 132 16 38 29 34 49 -15 43 -109 115 -239 166 -303 31 -38 52 -74 48 -78 -19 -19 -86 -18 -123 1 -24 12 -38 16 -38 8 0 -19 56 -109 83 -135 l25 -23 30 41 c17 23 45 77 62 119 18 42 39 92 46 111 17 42 24 36 54 -49 32 -88 76 -177 112 -223 17 -21 28 -40 25 -43 -8 -8 -40 -8 -71 0 -29 7 -29 7 -14 -16 13 -20 42 -42 124 -95 19 -12 19 -13 -1 -28 -15 -12 -35 -16 -77 -13 l-57 4 17 -29 c22 -37 129 -137 147 -137 35 0 85 258 85 440 0 340 -123 639 -367 891 -200 206 -446 337 -722 383 -101 17 -277 19 -376 5z"/> <path d="M590 1554 c0 -18 94 -134 127 -157 35 -24 93 -37 93 -21 0 3 -34 42 -75 87 -41 44 -75 84 -75 89 0 4 -16 8 -35 8 -19 0 -35 -3 -35 -6z"/> <path d="M2330 1518 c-19 -24 -57 -67 -84 -95 -48 -52 -48 -53 -22 -53 52 0 112 48 170 134 33 49 33 56 -2 56 -22 0 -37 -10 -62 -42z"/> <path d="M630 1311 c0 -35 108 -116 175 -131 49 -11 52 3 7 35 -20 16 -53 43 -72 60 -34 32 -110 57 -110 36z"/> <path d="M2345 1312 c-16 -2 -43 -16 -60 -31 -16 -15 -51 -44 -77 -63 -52 -38 -53 -50 -4 -41 50 9 98 38 144 86 46 47 46 55 -3 49z"/> <path d="M398 1156 c-20 -6 -39 -14 -43 -17 -7 -8 15 -59 26 -59 9 0 69 71 69 82 0 10 -5 9 -52 -6z"/> <path d="M2570 1162 c0 -5 14 -28 31 -52 30 -42 32 -43 46 -24 34 46 35 53 6 59 -16 4 -38 11 -51 16 -28 11 -32 11 -32 1z"/> <path d="M700 1033 c0 -5 27 -41 60 -81 l60 -71 0 -194 0 -194 51 -6 c29 -4 56 -4 60 -1 14 8 11 511 -2 520 -6 4 -47 10 -91 15 -44 4 -93 11 -109 14 -16 4 -29 3 -29 -2z"/> <path d="M2215 1028 c-38 -5 -85 -11 -102 -14 l-33 -5 0 -258 0 -259 23 -6 c12 -3 37 -6 55 -6 l32 0 0 200 0 200 54 59 c30 32 59 68 65 80 13 24 18 24 -94 9z"/> <path d="M500 685 l0 -194 35 -7 c66 -12 65 -14 65 181 l0 176 -46 19 c-25 11 -48 20 -50 20 -2 0 -4 -88 -4 -195z"/> <path d="M2460 860 l-45 -18 -3 -174 -2 -175 42 -6 c23 -3 47 -2 53 3 13 11 20 376 8 383 -4 2 -28 -4 -53 -13z"/> <path d="M1160 652 c0 -20 6 -21 200 -24 199 -3 239 -10 206 -37 -7 -6 -81 -25 -164 -41 -355 -68 -472 -119 -472 -206 0 -46 36 -82 147 -149 109 -66 140 -91 169 -136 l24 -39 190 0 c141 0 190 3 190 12 0 25 -110 117 -217 181 -130 78 -173 122 -173 173 0 63 45 90 240 140 129 33 140 38 140 70 0 22 3 24 23 19 12 -4 30 -9 40 -11 26 -8 21 -32 -10 -48 -16 -7 -73 -26 -128 -41 -108 -29 -148 -46 -182 -78 -49 -44 -18 -84 136 -173 134 -79 195 -127 236 -190 l36 -54 215 0 214 0 0 30 c0 40 -20 77 -62 116 -70 66 -171 110 -387 168 -141 39 -189 58 -198 82 -10 27 28 52 137 90 135 46 176 80 137 112 -38 32 -134 44 -409 49 -276 6 -278 6 -278 -15z"/> </g> </svg> 